<?xml version="1.0" standalone="no"?>
<!DOCTYPE svg PUBLIC "-//W3C//DTD SVG 20010904//EN"
 "http://www.w3.org/TR/2001/REC-SVG-20010904/DTD/svg10.dtd">
<svg version="1.0" xmlns="http://www.w3.org/2000/svg"
 width="150.000000pt" height="150.000000pt" viewBox="0 0 150.000000 150.000000"
 preserveAspectRatio="xMidYMid meet">
<metadata>
Created by potrace 1.11, written by Peter Selinger 2001-2013
</metadata>
<g transform="translate(0.000000,150.000000) scale(0.100000,-0.100000)"
fill="#000000" stroke="none">
<path d="M0 1335 l0 -165 24 0 c13 0 29 -7 36 -15 20 -24 87 -37 157 -29 63 6
65 7 103 59 46 62 82 89 159 122 52 22 53 23 21 21 -19 -1 -41 -6 -47 -11 -9
-6 -13 -6 -13 1 0 14 35 34 44 25 3 -3 6 0 6 9 0 19 28 76 42 84 6 4 24 -7 40
-25 16 -17 33 -31 39 -31 5 0 9 -6 9 -14 0 -10 20 -14 76 -15 122 -3 342 -89
443 -172 20 -16 40 -29 46 -29 5 0 3 5 -5 11 -18 13 -9 9 50 -18 41 -19 117
-32 196 -33 16 0 39 -6 49 -14 18 -13 18 -15 2 -30 -22 -22 -23 -50 -1 -42 9
3 18 6 20 6 2 0 4 106 4 235 l0 236 -137 -3 c-137 -3 -137 -3 -143 -28 -5 -23
-11 -25 -63 -26 -54 -1 -58 0 -55 20 2 14 13 23 33 27 17 4 -232 7 -552 8
l-583 1 0 -165z"/>
<path d="M538 1225 c-2 -2 -27 -6 -57 -9 -29 -3 -59 -10 -66 -16 -6 -5 -14 -7
-18 -4 -7 7 -62 -23 -94 -52 -12 -12 -23 -31 -23 -43 0 -33 29 -83 43 -75 7 3
0 -4 -14 -17 -15 -13 -29 -35 -32 -49 -3 -14 -9 -35 -12 -47 -10 -32 13 -30
25 2 14 36 65 55 173 62 l93 6 61 -47 c34 -25 79 -54 100 -64 65 -30 93 -54
114 -96 13 -26 14 -34 4 -22 -8 11 -15 14 -15 8 0 -20 -63 20 -133 84 l-37 35
-30 -21 c-17 -12 -30 -25 -30 -30 0 -5 -7 -10 -16 -12 -14 -3 -13 -6 5 -22 21
-19 21 -19 21 3 0 20 4 22 53 19 28 -2 50 -7 49 -12 -2 -5 2 -12 8 -16 8 -5 7
-9 -4 -13 -11 -5 -16 -1 -16 13 0 17 -7 20 -41 20 -22 0 -38 -4 -35 -9 11 -17
-5 -43 -19 -31 -17 14 -27 0 -13 -19 10 -13 10 -14 -2 -4 -11 10 -17 10 -29 0
-14 -10 -14 -10 -3 4 11 15 8 17 -22 21 -19 2 -33 1 -30 -3 2 -4 0 -10 -4 -13
-5 -3 -8 5 -7 17 3 28 -1 26 40 17 27 -6 35 -5 35 6 0 8 -5 14 -11 14 -5 0 -7
5 -4 10 3 6 1 10 -5 10 -6 0 -13 -7 -16 -15 -4 -8 -10 -12 -15 -9 -5 3 -19 -2
-31 -10 -26 -18 -88 -21 -88 -5 0 6 7 8 17 5 9 -4 19 -3 22 2 3 4 17 16 31 26
l25 18 -25 -7 c-19 -5 -22 -4 -10 4 19 13 61 14 94 1 14 -5 26 -6 26 -2 0 15
-58 29 -101 26 -101 -9 -167 -22 -176 -37 -4 -6 0 -8 8 -5 8 3 24 2 36 -3 30
-11 19 -46 -24 -71 -18 -11 -38 -28 -43 -38 -8 -15 -18 -17 -52 -13 -24 3 -45
10 -46 15 -2 4 -10 15 -18 23 -9 8 -10 16 -4 20 5 3 10 14 9 23 0 9 -9 -1 -19
-22 -10 -22 -25 -41 -33 -42 -8 -1 -34 -13 -58 -26 -38 -21 -44 -29 -47 -62
-3 -38 -3 -38 30 -33 18 3 44 8 58 12 l25 7 -22 -16 c-22 -17 -33 -44 -13 -31
6 3 17 0 25 -8 12 -13 12 -17 -5 -32 -10 -9 -24 -14 -29 -10 -16 10 -13 -21 3
-34 12 -10 20 -9 38 3 21 13 24 13 41 -10 10 -14 13 -24 7 -24 -6 0 -19 -7
-28 -17 -15 -15 -17 -14 -22 8 -6 22 -7 23 -12 4 -5 -23 17 -52 27 -35 8 12
55 13 55 2 0 -5 9 -19 19 -31 11 -12 18 -30 16 -39 -2 -9 -4 -27 -4 -39 -1
-13 -6 -23 -12 -23 -6 0 -9 5 -7 12 7 21 -30 48 -65 46 -17 -1 -37 -5 -43 -10
-7 -5 -14 -3 -17 6 -4 9 7 20 31 32 32 16 34 19 15 22 -12 2 -32 -2 -44 -8
-17 -9 -23 -9 -29 0 -6 9 -9 9 -15 0 -6 -9 -10 -9 -16 1 -5 9 -9 -19 -9 -68 0
-73 2 -83 18 -81 32 2 52 -2 52 -12 0 -5 -16 -10 -35 -10 l-35 0 0 -105 0
-105 750 0 750 0 0 80 0 80 -87 1 c-153 2 -223 5 -230 12 -3 4 -1 7 6 7 7 0
10 4 7 8 -3 5 3 8 12 8 9 0 54 1 99 2 74 2 81 4 76 21 -4 15 -13 18 -50 17
-52 -2 -66 10 -28 24 22 8 25 15 23 45 -1 19 -8 37 -15 39 -11 4 -11 1 -3 -15
6 -11 9 -28 7 -37 -4 -14 -6 -13 -12 6 -4 12 -14 22 -22 22 -8 0 -11 -4 -8
-10 3 -5 -1 -20 -9 -32 -9 -12 -16 -17 -16 -10 0 6 1 14 3 15 1 2 -4 11 -12
20 -12 15 -11 17 5 17 17 0 16 3 -6 21 -14 11 -19 18 -12 14 15 -8 15 0 2 26
-6 10 -7 19 -2 19 5 0 15 -14 22 -30 15 -37 25 -34 10 4 -8 22 -6 30 10 46 11
11 20 26 20 33 0 8 -3 7 -10 -3 -5 -8 -12 -12 -15 -8 -3 3 5 15 19 26 15 11
26 28 26 38 0 12 -3 15 -8 8 -4 -6 -17 -14 -29 -18 -18 -6 -22 -4 -17 8 3 9 9
16 13 16 3 0 17 10 31 21 l25 21 -28 -16 c-34 -20 -52 -16 -94 24 -20 18 -41
29 -55 27 -17 -1 -25 5 -33 29 -6 17 -25 45 -43 62 -17 16 -32 37 -32 45 0 14
-44 33 -65 28 -37 -10 -55 -10 -61 0 -5 8 -2 9 7 4 10 -5 11 -5 4 3 -5 6 -21
12 -34 14 -30 4 -39 26 -14 35 28 10 52 34 47 47 -2 6 9 17 26 23 16 6 30 18
30 27 0 10 -6 13 -17 9 -17 -6 -17 -5 0 14 17 20 17 21 -8 25 -14 3 -25 1 -25
-3 0 -5 6 -9 13 -9 9 0 9 -2 -1 -8 -7 -5 -10 -15 -8 -23 3 -8 -7 -28 -22 -44
-15 -17 -26 -29 -25 -26 2 2 -6 10 -17 18 -25 18 -27 84 -4 107 8 9 12 21 8
27 -5 8 -1 8 14 0 12 -6 33 -12 47 -13 14 -1 31 -8 37 -15 6 -7 23 -13 39 -13
19 0 32 -7 40 -22 7 -13 18 -27 26 -31 7 -5 25 -26 38 -48 20 -31 31 -39 55
-39 17 0 38 -4 48 -9 9 -5 34 -16 56 -25 36 -16 40 -16 57 0 32 29 25 94 -13
138 -86 98 -128 137 -139 130 -8 -4 -9 -3 -5 4 11 18 -176 104 -227 104 -15
-1 -25 3 -22 8 8 13 -38 20 -53 8 -10 -9 -12 -8 -10 3 2 10 -7 14 -29 14 -18
0 -33 3 -33 7 0 5 -5 8 -11 8 -8 0 -8 -4 1 -14 6 -8 18 -12 26 -9 16 6 43 -23
44 -45 0 -10 -5 -10 -20 -2 -11 6 -19 16 -17 23 1 8 -9 11 -28 10 -16 -1 -41
1 -55 4 l-25 5 30 13 30 12 -30 7 c-56 13 -63 14 -76 4 -11 -8 -10 -9 3 -4 10
3 20 1 23 -4 7 -11 -5 -40 -17 -40 -5 0 -7 3 -5 8 3 4 -21 7 -54 6 -32 0 -59
3 -59 8 0 4 7 8 15 8 8 0 15 5 15 11 0 6 7 9 15 5 8 -3 15 -1 15 4 0 8 -74 12
-82 5z m9 -21 c-3 -3 -12 -4 -19 -1 -8 3 -5 6 6 6 11 1 17 -2 13 -5z m392 -68
c17 4 28 -9 24 -27 -6 -23 -40 -25 -71 -3 -25 17 -27 29 -9 48 10 12 15 11 31
-2 10 -10 21 -16 25 -16z m-310 -32 c6 -14 11 -34 11 -44 0 -11 5 -20 11 -20
6 0 8 -7 5 -16 -4 -10 1 -25 10 -36 10 -10 14 -21 10 -25 -10 -10 -57 29 -75
63 -16 29 -18 30 -39 16 -20 -13 -26 -13 -49 -1 l-25 14 31 12 c37 15 39 21 9
21 -38 1 -109 19 -121 32 -9 9 -6 10 13 6 76 -15 147 -16 159 -2 16 19 35 11
50 -20z m423 2 c3 3 9 0 14 -7 4 -7 3 -10 -4 -5 -5 3 -12 2 -14 -3 -1 -5 -12
3 -22 17 -20 27 -20 27 0 9 12 -9 23 -14 26 -11z m-366 -46 c0 -12 -4 -16 -9
-11 -5 5 -6 14 -3 20 10 15 12 14 12 -9z m352 7 c14 6 15 5 2 -9 -15 -16 -31
-7 -29 17 0 6 3 5 5 -2 3 -7 13 -9 22 -6z m76 4 c3 -4 -6 -6 -19 -3 -14 2 -25
6 -25 8 0 8 39 4 44 -5z m31 0 c3 -5 2 -12 -3 -15 -5 -3 -9 1 -9 9 0 17 3 19
12 6z m-25 -31 c0 -4 7 -7 16 -6 9 0 18 -5 20 -12 1 -7 0 -8 -3 -2 -3 7 -9 7
-16 1 -8 -6 -18 -1 -30 15 -14 19 -15 23 -2 18 8 -3 15 -10 15 -14z m-270 -22
c0 -6 -6 -8 -14 -5 -8 3 -16 0 -18 -7 -2 -10 -11 -8 -33 6 l-30 20 28 -5 c19
-3 30 0 34 9 4 11 9 12 19 3 8 -6 14 -16 14 -21z m-112 -18 c4 -36 -14 -56
-35 -38 -16 13 -17 50 -1 66 19 19 33 9 36 -28z m217 10 c3 -5 -3 -10 -14 -10
-12 0 -21 5 -21 10 0 6 6 10 14 10 8 0 18 -4 21 -10z m215 -20 c13 -9 13 -10
0 -10 -12 -1 -11 -3 3 -14 23 -17 5 -32 -20 -17 -14 8 -15 10 -3 11 13 0 13 1
0 10 -13 9 -13 10 0 10 13 0 13 1 0 10 -8 5 -10 10 -5 10 6 0 17 -5 25 -10z
m-347 -13 c4 3 7 1 7 -5 0 -6 -8 -10 -18 -9 -10 0 -19 7 -19 14 0 9 4 10 12 3
7 -5 15 -7 18 -3z m291 4 c-8 -8 -43 -8 -38 0 2 4 13 7 24 6 10 -1 17 -3 14
-6z m-366 -49 c2 -7 -2 -10 -12 -6 -9 3 -16 11 -16 16 0 13 23 5 28 -10z m485
-43 c6 -24 -24 -44 -41 -27 -7 7 -12 17 -12 22 0 6 5 5 12 -2 7 -7 19 -12 27
-12 11 0 9 5 -7 16 -12 8 -20 19 -17 24 9 14 32 1 38 -21z m-386 -81 c-3 -7
-5 -2 -5 12 0 14 2 19 5 13 2 -7 2 -19 0 -25z m-200 -33 c-4 -8 -11 -15 -17
-15 -6 0 -6 7 2 20 14 22 24 19 15 -5z m87 -11 c9 -3 16 -14 16 -24 0 -21 -16
-35 -24 -22 -3 5 -19 7 -37 4 -23 -3 -28 -7 -18 -14 11 -8 11 -9 -1 -5 -26 7
-18 50 10 58 35 10 36 10 54 3z m-213 -27 c-10 -9 -11 -8 -5 6 3 10 9 15 12
12 3 -3 0 -11 -7 -18z m485 -94 c18 -24 17 -35 -3 -31 -9 2 -17 13 -18 26 -2
27 3 28 21 5z m44 1 c0 -2 -7 -4 -15 -4 -8 0 -15 4 -15 10 0 5 7 7 15 4 8 -4
15 -8 15 -10z m-280 -29 c0 -7 7 -18 15 -22 24 -14 3 -32 -24 -21 -19 6 -22
11 -13 20 17 17 15 28 -4 28 -8 0 -13 -4 -10 -8 2 -4 -4 -8 -15 -8 -19 0 -19
1 -3 13 24 17 54 16 54 -2z m-625 -6 c11 -16 1 -19 -13 -3 -7 8 -8 14 -3 14 5
0 13 -5 16 -11z m244 -49 c0 -13 -1 -13 -8 0 -5 8 -12 26 -15 40 l-7 25 15
-25 c9 -14 15 -32 15 -40z m165 33 c-2 -39 -3 -40 -15 -20 -8 13 -7 22 1 33
16 18 16 18 14 -13z m393 12 c0 -8 -4 -12 -9 -9 -5 3 -6 10 -3 15 9 13 12 11
12 -6z m-359 -27 c1 -32 1 -32 -12 -7 -13 24 -12 39 3 39 4 0 8 -14 9 -32z
m25 17 c-3 -9 -8 -14 -10 -11 -3 3 -2 9 2 15 9 16 15 13 8 -4z m372 -5 c3 -5
1 -10 -4 -10 -6 0 -11 5 -11 10 0 6 2 10 4 10 3 0 8 -4 11 -10z m-525 -4 c0
-3 -4 -8 -10 -11 -5 -3 -10 -1 -10 4 0 6 5 11 10 11 6 0 10 -2 10 -4z m245 -6
c3 -5 12 -7 20 -3 8 3 15 1 15 -4 0 -17 46 -33 58 -21 8 8 15 8 26 -1 13 -11
13 -15 2 -27 -8 -7 -13 -22 -12 -31 2 -10 1 -12 -1 -5 -3 6 -9 12 -14 12 -6 0
-8 4 -5 8 2 4 -4 13 -15 20 -25 16 -24 2 1 -31 20 -25 20 -25 0 -20 -10 3 -19
8 -19 12 3 18 -15 51 -27 51 -8 0 -14 5 -14 10 0 6 -5 10 -11 10 -5 0 -7 -4
-4 -10 3 -6 -1 -7 -10 -4 -11 5 -13 10 -5 19 8 9 7 14 -2 18 -9 4 -9 6 -1 6 6
1 14 -3 18 -9z m-455 -4 c0 -3 -4 -8 -10 -11 -5 -3 -10 -1 -10 4 0 6 5 11 10
11 6 0 10 -2 10 -4z m250 -27 c0 -11 -4 -18 -10 -14 -5 3 -7 12 -3 20 7 21 13
19 13 -6z m-290 -4 c7 -8 9 -15 6 -15 -4 0 -14 7 -22 15 -9 8 -11 15 -6 15 5
0 15 -7 22 -15z m110 -16 c0 -11 6 -28 12 -39 10 -16 10 -24 0 -40 -7 -12 -10
-25 -7 -29 3 -5 -4 -7 -15 -4 -16 4 -18 8 -9 19 11 13 5 28 -21 54 -3 3 -5 12
-5 20 0 8 -6 14 -13 12 -8 -1 -11 2 -7 8 3 5 13 10 21 10 8 0 13 4 10 9 -4 5
3 7 14 4 11 -3 20 -14 20 -24z m130 -8 c0 -6 -4 -12 -8 -15 -5 -3 -9 1 -9 9 0
8 4 15 9 15 4 0 8 -4 8 -9z m235 -1 c-3 -5 -1 -11 4 -11 6 -1 17 -2 24 -3 6 0
14 -12 16 -26 3 -25 3 -25 -18 -6 -18 16 -21 17 -21 3 0 -9 -5 -19 -12 -23 -6
-4 -8 -3 -4 4 4 6 -8 18 -29 28 -48 22 -57 39 -17 31 17 -4 34 -2 37 3 3 6 11
10 16 10 6 0 7 -4 4 -10z m379 1 c3 -5 -1 -14 -9 -21 -13 -10 -15 -9 -15 9 0
21 14 28 24 12z m-899 -10 c3 -5 0 -13 -6 -17 -7 -4 -9 -3 -5 4 3 5 0 13 -6
15 -9 4 -10 6 -1 6 6 1 14 -3 18 -8z m325 -33 c0 -5 -4 -8 -10 -8 -5 0 -10 10
-10 23 0 18 2 19 10 7 5 -8 10 -18 10 -22z m403 8 c22 -24 18 -49 -7 -54 -19
-4 -19 -3 -2 13 14 14 15 20 4 26 -20 13 -28 11 -28 -8 0 -24 -13 -7 -16 20
-3 30 24 32 49 3z m88 -8 l12 -23 -24 20 c-13 11 -26 21 -28 22 -2 2 3 3 12 3
9 0 22 -10 28 -22z m127 10 c-3 -7 -15 -14 -29 -16 -23 -2 -23 -2 -5 13 24 18
39 20 34 3z m-650 -33 c-3 -3 -9 2 -12 12 -6 14 -5 15 5 6 7 -7 10 -15 7 -18z
m42 -5 c0 -5 -7 -7 -15 -4 -8 4 -15 8 -15 10 0 2 7 4 15 4 8 0 15 -4 15 -10z
m324 2 c3 -5 -1 -9 -9 -9 -8 0 -12 4 -9 9 3 4 7 8 9 8 2 0 6 -4 9 -8z m386 -8
c0 -8 -4 -12 -10 -9 -5 3 -10 10 -10 16 0 5 5 9 10 9 6 0 10 -7 10 -16z m-846
-20 c5 -14 4 -15 -9 -4 -17 14 -19 20 -6 20 5 0 12 -7 15 -16z m490 -16 c-7
-12 -44 -10 -44 2 0 5 11 9 24 8 14 -1 22 -6 20 -10z m63 -15 c-9 -10 -23 -13
-36 -8 -28 8 -18 25 11 17 14 -3 19 -1 14 6 -5 8 -1 10 9 6 15 -6 15 -9 2 -21z
m293 -17 c0 -8 -6 -16 -14 -19 -10 -4 -12 0 -9 14 6 22 23 26 23 5z m-963 -25
c-3 -16 -1 -34 6 -41 9 -10 9 -12 -3 -8 -16 5 -25 40 -16 64 10 25 19 15 13
-15z m83 -1 c0 -6 7 -10 15 -10 8 0 15 -6 15 -14 0 -21 -17 -28 -24 -10 -8 21
-29 6 -23 -17 6 -23 -8 -25 -17 -2 -4 9 -2 20 5 23 8 6 8 13 0 28 -16 29 -14
34 9 22 11 -6 20 -15 20 -20z m35 20 c3 -5 2 -10 -4 -10 -5 0 -13 5 -16 10 -3
6 -2 10 4 10 5 0 13 -4 16 -10z m62 -18 c-10 -10 -14 -22 -10 -25 3 -4 -1 -7
-10 -7 -23 0 -21 8 5 35 26 27 39 24 15 -3z m-391 -28 c-5 -13 -10 -14 -18 -6
-6 6 -8 18 -4 28 5 13 10 14 18 6 6 -6 8 -18 4 -28z m1088 -46 c-4 -14 -2 -18
5 -14 6 4 11 3 11 -3 0 -14 -18 -23 -24 -12 -3 5 -16 7 -27 4 -19 -5 -20 -4
-10 15 6 11 16 24 22 28 6 3 8 18 5 33 l-6 26 16 -28 c8 -16 12 -37 8 -49z
m95 16 c1 -20 -23 -40 -41 -36 -5 1 -8 -5 -8 -13 0 -8 -4 -15 -10 -15 -18 0
-11 15 23 50 19 20 27 35 20 37 -7 2 -9 12 -6 20 6 14 8 14 14 -3 4 -10 8 -29
8 -40z m-211 9 c-7 -9 -14 -11 -15 -6 -2 6 -15 8 -28 5 -14 -2 -25 0 -25 7 0
5 6 8 14 5 8 -3 20 1 27 9 20 21 45 1 27 -20z m-168 -18 c0 -3 -8 -5 -19 -5
-17 0 -35 32 -24 44 5 4 43 -30 43 -39z m20 41 c0 -3 -4 -8 -10 -11 -5 -3 -10
-1 -10 4 0 6 5 11 10 11 6 0 10 -2 10 -4z m230 -15 c0 -6 -5 -13 -12 -17 -6
-4 -8 -3 -4 4 3 5 0 13 -6 15 -8 3 -6 6 5 6 9 1 17 -3 17 -8z m70 0 c0 -6 -4
-12 -8 -15 -5 -3 -9 1 -9 9 0 8 4 15 9 15 4 0 8 -4 8 -9z m-690 -26 c0 -19
-23 -25 -43 -10 -22 16 -21 23 1 27 24 6 42 -2 42 -17z m143 -16 c18 -17 18
-17 -3 -24 -12 -4 -35 -1 -52 6 -30 12 -30 12 -8 24 30 16 42 15 63 -6z m-233
-9 c0 -5 -4 -10 -10 -10 -5 0 -10 5 -10 10 0 6 5 10 10 10 6 0 10 -4 10 -10z
m590 0 c0 -5 -5 -10 -11 -10 -5 0 -7 5 -4 10 3 6 8 10 11 10 2 0 4 -4 4 -10z
m265 -10 c3 -5 1 -10 -4 -10 -6 0 -11 5 -11 10 0 6 2 10 4 10 3 0 8 -4 11 -10z
m-292 -80 c-7 -8 -22 24 -16 34 4 5 10 1 13 -10 4 -10 6 -21 3 -24z m147 30
c0 -5 -2 -10 -4 -10 -3 0 -8 5 -11 10 -3 6 -1 10 4 10 6 0 11 -4 11 -10z m-40
-14 c0 -3 -4 -8 -10 -11 -5 -3 -10 -1 -10 4 0 6 5 11 10 11 6 0 10 -2 10 -4z
m-875 -16 c4 -6 -5 -10 -19 -10 -14 0 -26 5 -26 10 0 6 9 10 19 10 11 0 23 -4
26 -10z m93 -37 c-10 -2 -26 -2 -35 0 -10 3 -2 5 17 5 19 0 27 -2 18 -5z m355
-10 c-7 -2 -19 -2 -25 0 -7 3 -2 5 12 5 14 0 19 -2 13 -5z m44 -19 c-3 -3 -12
-4 -19 -1 -8 3 -5 6 6 6 11 1 17 -2 13 -5z"/>
<path d="M758 1183 c7 -3 16 -2 19 1 4 3 -2 6 -13 5 -11 0 -14 -3 -6 -6z"/>
<path d="M80 1009 c0 -14 26 -40 33 -33 3 3 27 -2 53 -11 45 -15 49 -15 61 1
18 24 17 27 -14 42 -33 15 -133 16 -133 1z"/>
<path d="M416 938 c7 -11 34 -10 34 1 0 6 -9 9 -19 8 -11 0 -17 -5 -15 -9z"/>
<path d="M1452 918 c-17 -17 -15 -68 2 -68 8 0 21 -3 30 -6 13 -5 16 2 16 40
0 38 -3 46 -18 46 -10 0 -23 -5 -30 -12z"/>
<path d="M355 884 c-22 -7 -29 -12 -15 -9 14 3 44 5 68 5 26 0 41 4 37 10 -8
13 -42 11 -90 -6z"/>
<path d="M508 893 c6 -2 18 -2 25 0 6 3 1 5 -13 5 -14 0 -19 -2 -12 -5z"/>
<path d="M202 826 c7 -7 19 -11 25 -9 18 7 5 23 -18 23 -16 0 -18 -2 -7 -14z"/>
<path d="M1070 822 c0 -13 61 -75 67 -68 4 3 -2 13 -13 22 -18 15 -18 15 4 9
31 -9 27 7 -7 28 -31 18 -51 22 -51 9z"/>
<path d="M1456 815 c-11 -8 -29 -15 -40 -16 -20 0 -20 -1 2 -9 12 -5 22 -14
22 -20 0 -13 37 -50 50 -50 6 0 10 25 10 55 0 59 -9 67 -44 40z"/>
<path d="M1356 765 c-3 -9 0 -15 9 -15 9 0 12 6 9 15 -4 8 -7 15 -9 15 -2 0
-5 -7 -9 -15z"/>
<path d="M1298 698 c5 -5 16 -8 23 -6 8 3 3 7 -10 11 -17 4 -21 3 -13 -5z"/>
<path d="M1250 686 c0 -8 7 -17 16 -20 25 -9 26 -2 4 17 -16 13 -20 14 -20 3z"/>
<path d="M1365 673 c-11 -3 -23 -10 -27 -16 -4 -7 -12 -6 -25 3 -17 13 -17 13
-2 -4 14 -15 22 -16 58 -6 23 6 39 15 36 20 -7 11 -8 11 -40 3z"/>
<path d="M1276 631 c-3 -5 0 -14 7 -19 10 -8 13 -6 14 9 2 19 -11 26 -21 10z"/>
<path d="M1440 609 c0 -5 5 -7 10 -4 6 3 10 8 10 11 0 2 -4 4 -10 4 -5 0 -10
-5 -10 -11z"/>
<path d="M7 524 c-14 -15 -6 -67 14 -96 l22 -30 23 26 c25 26 32 42 14 31 -5
-3 -10 -1 -10 6 0 8 -4 8 -15 -1 -8 -7 -15 -11 -16 -9 0 2 -2 16 -3 31 -2 30
-18 53 -29 42z"/>
<path d="M1294 416 c1 -8 5 -18 8 -22 4 -3 5 1 4 10 -1 8 -5 18 -8 22 -4 3 -5
-1 -4 -10z"/>
<path d="M1380 318 c0 -13 8 -18 33 -19 17 -1 37 0 42 1 6 2 18 3 28 4 9 0 17
4 17 8 0 4 -20 8 -45 8 -25 0 -45 4 -45 8 0 5 -7 9 -15 9 -8 0 -15 -9 -15 -19z"/>
<path d="M1440 240 c-29 -25 -25 -28 23 -22 28 3 37 9 37 23 0 25 -30 25 -60
-1z"/>
<path d="M1468 183 c6 -2 18 -2 25 0 6 3 1 5 -13 5 -14 0 -19 -2 -12 -5z"/>
</g>
</svg>
